<svg xmlns="http://www.w3.org/2000/svg" xmlns:xlink="http://www.w3.org/1999/xlink" aria-hidden="true" focusable="false" width="3em" height="3em" style="-ms-transform: rotate(360deg); -webkit-transform: rotate(360deg); transform: rotate(360deg);" preserveAspectRatio="xMidYMid meet" viewBox="0 0 1024 1024"><path d="M1019 295L879 28q-6-12-20-20t-27-8H192q-13 0-27 8t-20 20L5 290q-6 12-5 28t9 26l480 670q8 10 19 10q5 0 10-2.5t9-7.5l488-664q16-23 6-50q-1-3-2-5zm-77-7H771l69-197zM575 64h206l-64 183zm93 224H371L511 86zm-354-31L250 64h199zm367 95L509 844L345 352h336zM437 831L93 352h185zm312-479h185L581 832zM188 82l69 206H79z" fill="#000080"/></svg>